<svg xmlns="http://www.w3.org/2000/svg" xmlns:svg="http://www.w3.org/2000/svg" xmlns:xlink="http://www.w3.org/1999/xlink" version="1.0" height="795pt" width="1045pt" viewBox="155 507 1053 801" ><defs><style type="text/css">
            @font-face {
                font-family: 'noto_regular';
                src: url('https://app.creately.com/diagram/assets/fonts/noto/noto-regular.woff') format('woff'),
                     url('https://app.creately.com/diagram/assets/fonts/noto/noto-regular.woff2') format('woff2');
                font-weight: normal;
                font-style: normal;
            }
        p {
            margin: 0;
        }
        </style></defs><defs><style>
            span{ display: inline-block; }
        </style></defs><g id="103ww5zig8"><g transform="translate(355 625)"><rect x="0" y="0" width="100" height="50" fill="rgba(255,255,255,1)" stroke="#75c19b" stroke-width="1.5" stroke-linecap="round" stroke-linejoin="round"/></g><g transform="translate(363.5, 640.5) rotate(0, 41.5, 9.5)" width="83" height="19"><text text-decoration="none" x="2" fill="rgb(75, 75, 75)" font-size="10pt" font-family="Lato"  y="17">PLAYER&#160;</text><text text-decoration="none" x="50" fill="rgb(75, 75, 75)" font-size="10pt" font-family="Lato"  y="17">INFO</text><text text-decoration="none" x="81" fill="#4b4b4b" font-size="10pt" font-family="noto_regular"  y="17"></text></g></g><g id="14ntzzg29u"><g transform="translate(485 520)"><ellipse cx="50" cy="25" rx="50" ry="25" fill="rgba(255,255,255,1)" stroke="#f6902a" stroke-width="1.5" stroke-linecap="round" stroke-linejoin="round"/></g><g transform="translate(490, 535.5) rotate(0, 45, 9.5)" width="90" height="19"><text text-decoration="underline" x="2.5" fill="rgb(75, 75, 75)" font-size="10pt" font-family="Lato"  y="17">PLAYER&#160;</text><text text-decoration="underline" x="50.5" fill="rgb(75, 75, 75)" font-size="10pt" font-family="Lato"  y="17">NAME</text><text text-decoration="none" x="87.5" fill="#4b4b4b" font-size="10pt" font-family="noto_regular"  y="17"></text></g></g><g id="1x0nzj1yve"><g transform="translate(340 510)"><ellipse cx="50" cy="25" rx="50" ry="25" fill="rgba(255,255,255,1)" stroke="#f6902a" stroke-width="1.5" stroke-linecap="round" stroke-linejoin="round"/></g><g transform="translate(359.5, 525.5) rotate(0, 30.5, 9.5)" width="61" height="19"><text text-decoration="none" x="1" fill="rgb(75, 75, 75)" font-size="10pt" font-family="Lato"  y="17">MATCHES</text><text text-decoration="none" x="60" fill="#4b4b4b" font-size="10pt" font-family="noto_regular"  y="17"></text></g></g><g id="2g9xxtnn6u"><g transform="translate(210 545)"><ellipse cx="50" cy="25" rx="50" ry="25" fill="rgba(255,255,255,1)" stroke="#f6902a" stroke-width="1.5" stroke-linecap="round" stroke-linejoin="round"/></g><g transform="translate(241.5, 560.5) rotate(0, 18.5, 9.5)" width="37" height="19"><text text-decoration="none" x="1.5" fill="rgb(75, 75, 75)" font-size="10pt" font-family="Lato"  y="17">RUNS</text><text text-decoration="none" x="35.5" fill="#4b4b4b" font-size="10pt" font-family="noto_regular"  y="17"></text></g></g><g id="1ze560m22o"><g transform="translate(160 655)"><ellipse cx="50" cy="25" rx="50" ry="25" fill="rgba(255,255,255,1)" stroke="#f6902a" stroke-width="1.5" stroke-linecap="round" stroke-linejoin="round"/></g><g transform="translate(180.5, 670.5) rotate(0, 29.5, 9.5)" width="59" height="19"><text text-decoration="none" x="3" fill="rgb(75, 75, 75)" font-size="10pt" font-family="Lato"  y="17">WICKETS</text><text text-decoration="none" x="56" fill="#4b4b4b" font-size="10pt" font-family="noto_regular"  y="17"></text></g></g><g id="y3rczavi4v"><g><path d="M 260,680 L 355,650" fill="none" stroke="#a0a0a0" stroke-width="1.5" stroke-linecap="round" stroke-linejoin="round"/></g></g><g id="2kel3ku3a5"><g><path d="M 310,570 L 405,625" fill="none" stroke="#a0a0a0" stroke-width="1.5" stroke-linecap="round" stroke-linejoin="round"/></g></g><g id="2i2qvqyutr"><g><path d="M 505,565 L 455,650" fill="none" stroke="#a0a0a0" stroke-width="1.5" stroke-linecap="round" stroke-linejoin="round"/></g></g><g id="2i79eqzc2v"><g><path d="M 405,560 L 405,625" fill="none" stroke="#a0a0a0" stroke-width="1.5" stroke-linecap="round" stroke-linejoin="round"/></g></g><g id="87vfu0t4df"><g transform="translate(585 620)"><path d="M 124.99999642372131,27.500000596046448 L 62.49999821186066,55.000001192092896 L 0,27.500000596046448 L 62.49999821186066,0 L 124.99999642372131,27.500000596046448 L 124.99999642372131,27.500000596046448 Z" fill="rgba(255,255,255,1)" stroke="#75c19b" stroke-width="1.5" stroke-linecap="round" stroke-linejoin="round"/></g><g transform="translate(632.4999982118607, 638.0000005960464) rotate(0, 15, 9.5)" width="30" height="19"><text text-decoration="none" x="1" fill="rgb(75, 75, 75)" font-size="10pt" font-family="Lato"  y="17">IS&#160;</text><text text-decoration="none" x="15" fill="rgb(75, 75, 75)" font-size="10pt" font-family="Lato"  y="17">IN</text><text text-decoration="none" x="29" fill="#4b4b4b" font-size="10pt" font-family="noto_regular"  y="17"></text></g></g><g id="29mionknxn"><g transform="translate(590 745)"><path d="M 130,30 L 65,60 L 0,30 L 65,0 L 130,30 L 130,30 Z" fill="rgba(255,255,255,1)" stroke="#75c19b" stroke-width="1.5" stroke-linecap="round" stroke-linejoin="round"/></g><g transform="translate(640, 765.5) rotate(0, 15, 9.5)" width="30" height="19"><text text-decoration="none" x="1" fill="rgb(75, 75, 75)" font-size="10pt" font-family="Lato"  y="17">IS&#160;</text><text text-decoration="none" x="15" fill="rgb(75, 75, 75)" font-size="10pt" font-family="Lato"  y="17">IN</text><text text-decoration="none" x="29" fill="#4b4b4b" font-size="10pt" font-family="noto_regular"  y="17"></text></g></g><g id="5tzzmutkgr"><g transform="translate(580 905)"><path d="M 130,30 L 65,60 L 0,30 L 65,0 L 130,30 L 130,30 Z" fill="rgba(255,255,255,1)" stroke="#75c19b" stroke-width="1.5" stroke-linecap="round" stroke-linejoin="round"/></g><g transform="translate(630, 925.5) rotate(0, 15, 9.5)" width="30" height="19"><text text-decoration="none" x="1" fill="rgb(75, 75, 75)" font-size="10pt" font-family="Lato"  y="17">IS&#160;</text><text text-decoration="none" x="15" fill="rgb(75, 75, 75)" font-size="10pt" font-family="Lato"  y="17">IN</text><text text-decoration="none" x="29" fill="#4b4b4b" font-size="10pt" font-family="noto_regular"  y="17"></text></g></g><g id="j6vfa3nf5r"><g transform="translate(800 625)"><rect x="0" y="0" width="100" height="50" fill="rgba(255,255,255,1)" stroke="#75c19b" stroke-width="1.5" stroke-linecap="round" stroke-linejoin="round"/></g><g transform="translate(812, 632.5) rotate(0, 38, 17.5)" width="76" height="35"><text text-decoration="none" x="2.5" fill="rgb(75, 75, 75)" font-size="10pt" font-family="Lato"  y="14">UNBOOKED&#160;</text><text text-decoration="none" x="12" fill="rgb(75, 75, 75)" font-size="10pt" font-family="Lato"  y="36">PLAYERS</text><text text-decoration="none" x="64" fill="#4b4b4b" font-size="10pt" font-family="noto_regular"  y="36"></text></g></g><g id="2bd9ok1jfd"><g transform="translate(800 750)"><rect x="0" y="0" width="100" height="50" fill="rgba(255,255,255,1)" stroke="#75c19b" stroke-width="1.5" stroke-linecap="round" stroke-linejoin="round"/></g><g transform="translate(837, 765.5) rotate(0, 13, 9.5)" width="26" height="19"><text text-decoration="none" x="1" fill="rgb(75, 75, 75)" font-size="10pt" font-family="Lato"  y="17">RCB</text><text text-decoration="none" x="25" fill="#4b4b4b" font-size="10pt" font-family="noto_regular"  y="17"></text></g></g><g id="1slvi6sdx1"><g transform="translate(805 910)"><rect x="0" y="0" width="100" height="50" fill="rgba(255,255,255,1)" stroke="#75c19b" stroke-width="1.5" stroke-linecap="round" stroke-linejoin="round"/></g><g transform="translate(841.5, 925.5) rotate(0, 13.5, 9.5)" width="27" height="19"><text text-decoration="none" x="1.5" fill="rgb(75, 75, 75)" font-size="10pt" font-family="Lato"  y="17">KKR</text><text text-decoration="none" x="25.5" fill="#4b4b4b" font-size="10pt" font-family="noto_regular"  y="17"></text></g></g><g id="b6i1bbs1ry"><g transform="translate(920 510)"><ellipse cx="50" cy="25" rx="50" ry="25" fill="rgba(255,255,255,1)" stroke="#f6902a" stroke-width="1.5" stroke-linecap="round" stroke-linejoin="round"/></g><g transform="translate(925, 525.5) rotate(0, 45, 9.5)" width="90" height="19"><text text-decoration="underline" x="2.5" fill="rgb(75, 75, 75)" font-size="10pt" font-family="Lato"  y="17">PLAYER&#160;</text><text text-decoration="underline" x="50.5" fill="rgb(75, 75, 75)" font-size="10pt" font-family="Lato"  y="17">NAME</text><text text-decoration="none" x="87.5" fill="#4b4b4b" font-size="10pt" font-family="noto_regular"  y="17"></text></g></g><g id="39vddfo438"><g transform="translate(980 600)"><ellipse cx="50" cy="25" rx="50" ry="25" fill="rgba(255,255,255,1)" stroke="#f6902a" stroke-width="1.5" stroke-linecap="round" stroke-linejoin="round"/></g><g transform="translate(997, 615.5) rotate(0, 33, 9.5)" width="66" height="19"><text text-decoration="underline" x="2.5" fill="rgb(75, 75, 75)" font-size="10pt" font-family="Lato"  y="17">PLAYER&#160;</text><text text-decoration="underline" x="50.5" fill="rgb(75, 75, 75)" font-size="10pt" font-family="Lato"  y="17">ID</text><text text-decoration="none" x="63.5" fill="#4b4b4b" font-size="10pt" font-family="noto_regular"  y="17"></text></g></g><g id="20jx3id4o2"><g transform="translate(775 510)"><ellipse cx="50" cy="25" rx="50" ry="25" fill="rgba(255,255,255,1)" stroke="#f6902a" stroke-width="1.5" stroke-linecap="round" stroke-linejoin="round"/></g><g transform="translate(779.5, 525.5) rotate(0, 45.5, 9.5)" width="91" height="19"><text text-decoration="none" x="3.5" fill="rgb(75, 75, 75)" font-size="10pt" font-family="Lato"  y="17">STARTING&#160;</text><text text-decoration="none" x="66.5" fill="rgb(75, 75, 75)" font-size="10pt" font-family="Lato"  y="17">BID</text><text text-decoration="none" x="87.5" fill="#4b4b4b" font-size="10pt" font-family="noto_regular"  y="17"></text></g></g><g id="1mwcxzpjep"><g transform="translate(955 705)"><ellipse cx="50" cy="25" rx="50" ry="25" fill="rgba(255,255,255,1)" stroke="#f6902a" stroke-width="1.5" stroke-linecap="round" stroke-linejoin="round"/></g><g transform="translate(972, 720.5) rotate(0, 33, 9.5)" width="66" height="19"><text text-decoration="underline" x="2.5" fill="rgb(75, 75, 75)" font-size="10pt" font-family="Lato"  y="17">PLAYER&#160;</text><text text-decoration="underline" x="50.5" fill="rgb(75, 75, 75)" font-size="10pt" font-family="Lato"  y="17">ID</text><text text-decoration="none" x="63.5" fill="#4b4b4b" font-size="10pt" font-family="noto_regular"  y="17"></text></g></g><g id="3ulyaqjq6y"><g transform="translate(970 920)"><ellipse cx="50" cy="25" rx="50" ry="25" fill="rgba(255,255,255,1)" stroke="#f6902a" stroke-width="1.5" stroke-linecap="round" stroke-linejoin="round"/></g><g transform="translate(987, 935.5) rotate(0, 33, 9.5)" width="66" height="19"><text text-decoration="underline" x="2.5" fill="rgb(75, 75, 75)" font-size="10pt" font-family="Lato"  y="17">PLAYER&#160;</text><text text-decoration="underline" x="50.5" fill="rgb(75, 75, 75)" font-size="10pt" font-family="Lato"  y="17">ID</text><text text-decoration="none" x="63.5" fill="#4b4b4b" font-size="10pt" font-family="noto_regular"  y="17"></text></g></g><g id="1zc7tvh2ah"><g transform="translate(960 820)"><ellipse cx="50" cy="25" rx="50" ry="25" fill="rgba(255,255,255,1)" stroke="#f6902a" stroke-width="1.5" stroke-linecap="round" stroke-linejoin="round"/></g><g transform="translate(965, 835.5) rotate(0, 45, 9.5)" width="90" height="19"><text text-decoration="underline" x="2.5" fill="rgb(75, 75, 75)" font-size="10pt" font-family="Lato"  y="17">PLAYER&#160;</text><text text-decoration="underline" x="50.5" fill="rgb(75, 75, 75)" font-size="10pt" font-family="Lato"  y="17">NAME</text><text text-decoration="none" x="87.5" fill="#4b4b4b" font-size="10pt" font-family="noto_regular"  y="17"></text></g></g><g id="28672bsndj"><g transform="translate(695 1015)"><ellipse cx="50" cy="25" rx="50" ry="25" fill="rgba(255,255,255,1)" stroke="#f6902a" stroke-width="1.5" stroke-linecap="round" stroke-linejoin="round"/></g><g transform="translate(700, 1030.5) rotate(0, 45, 9.5)" width="90" height="19"><text text-decoration="underline" x="2.5" fill="rgb(75, 75, 75)" font-size="10pt" font-family="Lato"  y="17">PLAYER&#160;</text><text text-decoration="underline" x="50.5" fill="rgb(75, 75, 75)" font-size="10pt" font-family="Lato"  y="17">NAME</text><text text-decoration="none" x="87.5" fill="#4b4b4b" font-size="10pt" font-family="noto_regular"  y="17"></text></g></g><g id="2ox5c30qjn"><g transform="translate(1105 755)"><ellipse cx="50" cy="25" rx="50" ry="25" fill="rgba(255,255,255,1)" stroke="#f6902a" stroke-width="1.5" stroke-linecap="round" stroke-linejoin="round"/></g><g transform="translate(1109.5, 770.5) rotate(0, 45.5, 9.5)" width="91" height="19"><text text-decoration="none" x="3.5" fill="rgb(75, 75, 75)" font-size="10pt" font-family="Lato"  y="17">STARTING&#160;</text><text text-decoration="none" x="66.5" fill="rgb(75, 75, 75)" font-size="10pt" font-family="Lato"  y="17">BID</text><text text-decoration="none" x="87.5" fill="#4b4b4b" font-size="10pt" font-family="noto_regular"  y="17"></text></g></g><g id="b1lydmhe13"><g transform="translate(845 1040)"><ellipse cx="50" cy="25" rx="50" ry="25" fill="rgba(255,255,255,1)" stroke="#f6902a" stroke-width="1.5" stroke-linecap="round" stroke-linejoin="round"/></g><g transform="translate(849.5, 1055.5) rotate(0, 45.5, 9.5)" width="91" height="19"><text text-decoration="none" x="3.5" fill="rgb(75, 75, 75)" font-size="10pt" font-family="Lato"  y="17">STARTING&#160;</text><text text-decoration="none" x="66.5" fill="rgb(75, 75, 75)" font-size="10pt" font-family="Lato"  y="17">BID</text><text text-decoration="none" x="87.5" fill="#4b4b4b" font-size="10pt" font-family="noto_regular"  y="17"></text></g></g><g id="1fich1hu3j"><g transform="translate(990 1015)"><ellipse cx="50" cy="25" rx="50" ry="25" fill="rgba(255,255,255,1)" stroke="#f6902a" stroke-width="1.5" stroke-linecap="round" stroke-linejoin="round"/></g><g transform="translate(1000, 1030.5) rotate(0, 40, 9.5)" width="80" height="19"><text text-decoration="none" x="3" fill="rgb(75, 75, 75)" font-size="10pt" font-family="Lato"  y="17">TOTAL&#160;</text><text text-decoration="none" x="45" fill="rgb(75, 75, 75)" font-size="10pt" font-family="Lato"  y="17">COST</text><text text-decoration="none" x="77" fill="#4b4b4b" font-size="10pt" font-family="noto_regular"  y="17"></text></g></g><g id="7swexrq26m"><g transform="translate(800 830)"><ellipse cx="50" cy="25" rx="50" ry="25" fill="rgba(255,255,255,1)" stroke="#f6902a" stroke-width="1.5" stroke-linecap="round" stroke-linejoin="round"/></g><g transform="translate(810, 845.5) rotate(0, 40, 9.5)" width="80" height="19"><text text-decoration="none" x="3" fill="rgb(75, 75, 75)" font-size="10pt" font-family="Lato"  y="17">TOTAL&#160;</text><text text-decoration="none" x="45" fill="rgb(75, 75, 75)" font-size="10pt" font-family="Lato"  y="17">COST</text><text text-decoration="none" x="77" fill="#4b4b4b" font-size="10pt" font-family="noto_regular"  y="17"></text></g></g><g id="3rf6w1dpcq"><g><path d="M 840,560 L 850,625" fill="none" stroke="#a0a0a0" stroke-width="1.5" stroke-linecap="round" stroke-linejoin="round"/></g></g><g id="665bt1xi70"><g><path d="M 455,650 L 585,650" fill="none" stroke="#a0a0a0" stroke-width="1.5" stroke-linecap="round" stroke-linejoin="round"/></g></g><g id="1peuamvjnb"><g><path d="M 455,650 L 492.5,650 L 492.5,792.5 L 492.5,935 L 580,935" fill="none" stroke="#a0a0a0" stroke-width="1.5" stroke-linecap="round" stroke-linejoin="round"/></g></g><g id="cjhg5ptjt0"><g><path d="M 455,650 L 522.5,650 L 522.5,712.5 L 522.5,775 L 590,775" fill="none" stroke="#a0a0a0" stroke-width="1.5" stroke-linecap="round" stroke-linejoin="round"/></g></g><g id="1zopov8yc6"><g><path d="M 710,650 L 800,650" fill="none" stroke="#a0a0a0" stroke-width="1.5" stroke-linecap="round" stroke-linejoin="round"/></g></g><g id="2ozjbky8gw"><g><path d="M 720,775 L 800,775" fill="none" stroke="#a0a0a0" stroke-width="1.5" stroke-linecap="round" stroke-linejoin="round"/></g></g><g id="2dhho6hddn"><g><path d="M 710,935 L 805,935" fill="none" stroke="#a0a0a0" stroke-width="1.5" stroke-linecap="round" stroke-linejoin="round"/></g></g><g id="24vd0uitds"><g><path d="M 920,535 L 850,625" fill="none" stroke="#a0a0a0" stroke-width="1.5" stroke-linecap="round" stroke-linejoin="round"/></g></g><g id="xqqj92ilbr"><g><path d="M 980,625 L 900,650" fill="none" stroke="#a0a0a0" stroke-width="1.5" stroke-linecap="round" stroke-linejoin="round"/></g></g><g id="2loau9e9kn"><g><path d="M 955,730 L 850,750" fill="none" stroke="#a0a0a0" stroke-width="1.5" stroke-linecap="round" stroke-linejoin="round"/></g></g><g id="7dlwcuquwc"><g><path d="M 1105,780 L 900,775" fill="none" stroke="#a0a0a0" stroke-width="1.5" stroke-linecap="round" stroke-linejoin="round"/></g></g><g id="7xsdqci821"><g><path d="M 850,830 L 850,800" fill="none" stroke="#a0a0a0" stroke-width="1.5" stroke-linecap="round" stroke-linejoin="round"/></g></g><g id="1jgh33uvdj"><g><path d="M 960,845 L 850,800" fill="none" stroke="#a0a0a0" stroke-width="1.5" stroke-linecap="round" stroke-linejoin="round"/></g></g><g id="235lm9j3d6"><g><path d="M 970,945 L 905,935" fill="none" stroke="#a0a0a0" stroke-width="1.5" stroke-linecap="round" stroke-linejoin="round"/></g></g><g id="7eb6z4oiw9"><g><path d="M 990,1040 L 855,960" fill="none" stroke="#a0a0a0" stroke-width="1.5" stroke-linecap="round" stroke-linejoin="round"/></g></g><g id="5qh07dupp6"><g><path d="M 880,1040 L 855,960" fill="none" stroke="#a0a0a0" stroke-width="1.5" stroke-linecap="round" stroke-linejoin="round"/></g></g><g id="1onxc77v25"><g><path d="M 795,1040 L 855,960" fill="none" stroke="#a0a0a0" stroke-width="1.5" stroke-linecap="round" stroke-linejoin="round"/></g></g><g id="2rtr0pc6og"><g transform="translate(320 1150)"><rect x="0" y="0" width="100" height="50" fill="rgba(255,255,255,1)" stroke="#75c19b" stroke-width="1.5" stroke-linecap="round" stroke-linejoin="round"/></g><g transform="translate(348.5, 1165.5) rotate(0, 21.5, 9.5)" width="43" height="19"><text text-decoration="none" x="2.5" fill="rgb(75, 75, 75)" font-size="10pt" font-family="Lato"  y="17">USERS</text><text text-decoration="none" x="40.5" fill="#4b4b4b" font-size="10pt" font-family="noto_regular"  y="17"></text></g></g><g id="6mgleryw4m"><g transform="translate(665 1150)"><rect x="0" y="0" width="100" height="50" fill="rgba(255,255,255,1)" stroke="#75c19b" stroke-width="1.5" stroke-linecap="round" stroke-linejoin="round"/></g><g transform="translate(697, 1165.5) rotate(0, 18, 9.5)" width="36" height="19"><text text-decoration="none" x="1" fill="rgb(75, 75, 75)" font-size="10pt" font-family="Lato"  y="17">TEAM</text><text text-decoration="none" x="35" fill="#4b4b4b" font-size="10pt" font-family="noto_regular"  y="17"></text></g></g><g id="2m8bc4ho9s"><g transform="translate(250 1065)"><ellipse cx="50" cy="25" rx="50" ry="25" fill="rgba(255,255,255,1)" stroke="#f6902a" stroke-width="1.5" stroke-linecap="round" stroke-linejoin="round"/></g><g transform="translate(263.5, 1080.5) rotate(0, 36.5, 9.5)" width="73" height="19"><text text-decoration="underline" x="2.5" fill="rgb(75, 75, 75)" font-size="10pt" font-family="Lato"  y="17">USERNAME</text><text text-decoration="none" x="70.5" fill="#4b4b4b" font-size="10pt" font-family="noto_regular"  y="17"></text></g></g><g id="7jp7n84g9i"><g transform="translate(415 1035)"><ellipse cx="50" cy="25" rx="50" ry="25" fill="rgba(255,255,255,1)" stroke="#f6902a" stroke-width="1.5" stroke-linecap="round" stroke-linejoin="round"/></g><g transform="translate(428, 1050.5) rotate(0, 37, 9.5)" width="74" height="19"><text text-decoration="none" x="2.5" fill="rgb(75, 75, 75)" font-size="10pt" font-family="Lato"  y="17">PASSWORD</text><text text-decoration="none" x="71.5" fill="#4b4b4b" font-size="10pt" font-family="noto_regular"  y="17"></text></g></g><g id="1zqsf8ron1"><g transform="translate(230 1245)"><ellipse cx="50" cy="25" rx="50" ry="25" fill="rgba(255,255,255,1)" stroke="#f6902a" stroke-width="1.5" stroke-linecap="round" stroke-linejoin="round"/></g><g transform="translate(241, 1260.5) rotate(0, 39, 9.5)" width="78" height="19"><text text-decoration="none" x="2" fill="rgb(75, 75, 75)" font-size="10pt" font-family="Lato"  y="17">TEAM&#160;</text><text text-decoration="none" x="39" fill="rgb(75, 75, 75)" font-size="10pt" font-family="Lato"  y="17">NAME</text><text text-decoration="none" x="76" fill="#4b4b4b" font-size="10pt" font-family="noto_regular"  y="17"></text></g></g><g id="63rdlryodk"><g><path d="M 310,1250 L 370,1200" fill="none" stroke="#a0a0a0" stroke-width="1.5" stroke-linecap="round" stroke-linejoin="round"/></g></g><g id="1rdbmi3o7s"><g><path d="M 330,1110 L 370,1150" fill="none" stroke="#a0a0a0" stroke-width="1.5" stroke-linecap="round" stroke-linejoin="round"/></g></g><g id="2ggb5yq78l"><g><path d="M 435,1080 L 370,1150" fill="none" stroke="#a0a0a0" stroke-width="1.5" stroke-linecap="round" stroke-linejoin="round"/></g></g><g id="3g56w1c2j7"><g transform="translate(560 1075)"><ellipse cx="50" cy="25" rx="50" ry="25" fill="rgba(255,255,255,1)" stroke="#f6902a" stroke-width="1.5" stroke-linecap="round" stroke-linejoin="round"/></g><g transform="translate(571, 1090.5) rotate(0, 39, 9.5)" width="78" height="19"><text text-decoration="underline" x="2" fill="rgb(75, 75, 75)" font-size="10pt" font-family="Lato"  y="17">TEAM&#160;</text><text text-decoration="underline" x="39" fill="rgb(75, 75, 75)" font-size="10pt" font-family="Lato"  y="17">NAME</text><text text-decoration="none" x="76" fill="#4b4b4b" font-size="10pt" font-family="noto_regular"  y="17"></text></g></g><g id="82gwlrzd1s"><g transform="translate(860 1155)"><ellipse cx="50" cy="25" rx="50" ry="25" fill="rgba(255,255,255,1)" stroke="#f6902a" stroke-width="1.5" stroke-linecap="round" stroke-linejoin="round"/></g><g transform="translate(879.5, 1162.5) rotate(0, 30.5, 17.5)" width="61" height="35"><text text-decoration="none" x="11" fill="rgb(75, 75, 75)" font-size="10pt" font-family="Lato"  y="14">TOTAL&#160;</text><text text-decoration="none" x="2.5" fill="rgb(75, 75, 75)" font-size="10pt" font-family="Lato"  y="36">BALANCE</text><text text-decoration="none" x="58.5" fill="#4b4b4b" font-size="10pt" font-family="noto_regular"  y="36"></text></g></g><g id="sio080hkkd"><g transform="translate(705 1255)"><ellipse cx="50" cy="25" rx="50" ry="25" fill="rgba(255,255,255,1)" stroke="#f6902a" stroke-width="1.5" stroke-linecap="round" stroke-linejoin="round"/></g><g transform="translate(727, 1262.5) rotate(0, 28, 17.5)" width="56" height="35"><text text-decoration="none" x="8" fill="rgb(75, 75, 75)" font-size="10pt" font-family="Lato"  y="14">NO&#160;</text><text text-decoration="none" x="31" fill="rgb(75, 75, 75)" font-size="10pt" font-family="Lato"  y="14">OF&#160;</text><text text-decoration="none" x="2" fill="rgb(75, 75, 75)" font-size="10pt" font-family="Lato"  y="36">PLAYERS</text><text text-decoration="none" x="54" fill="#4b4b4b" font-size="10pt" font-family="noto_regular"  y="36"></text></g></g><g id="5tcdkljozl"><g><path d="M 740,1255 L 715,1200" fill="none" stroke="#a0a0a0" stroke-width="1.5" stroke-linecap="round" stroke-linejoin="round"/></g></g><g id="2mnkm8774a"><g><path d="M 860,1180 L 765,1175" fill="none" stroke="#a0a0a0" stroke-width="1.5" stroke-linecap="round" stroke-linejoin="round"/></g></g><g id="5m3yk9yxuc"><g><path d="M 660,1100 L 715,1150" fill="none" stroke="#a0a0a0" stroke-width="1.5" stroke-linecap="round" stroke-linejoin="round"/></g></g><g id="4ngm287nbw"><g transform="translate(475 1145)"><path d="M 130,30 L 65,60 L 0,30 L 65,0 L 130,30 L 130,30 Z" fill="rgba(255,255,255,1)" stroke="#75c19b" stroke-width="1.5" stroke-linecap="round" stroke-linejoin="round"/></g><g transform="translate(516, 1165.5) rotate(0, 24, 9.5)" width="48" height="19"><text text-decoration="none" x="2" fill="rgb(75, 75, 75)" font-size="10pt" font-family="Lato"  y="17">HAVE&#160;</text><text text-decoration="none" x="38" fill="rgb(75, 75, 75)" font-size="10pt" font-family="Lato"  y="17">A</text><text text-decoration="none" x="46" fill="#4b4b4b" font-size="10pt" font-family="noto_regular"  y="17"></text></g></g><g id="2a94xfmkc3"><g><path d="M 420,1175 L 475,1175" fill="none" stroke="#a0a0a0" stroke-width="1.5" stroke-linecap="round" stroke-linejoin="round"/></g></g><g id="8e7tzg1fru"><mask id="e750e" x="592" y="1162" width="86" height="26" maskUnits="userSpaceOnUse"><rect x="592" y="1162" width="86" height="26" fill="white" /><rect x="627" y="1162.5" width="16" height="25" fill="black" /><rect x="627" y="1162.5" width="16" height="25" fill="black" /><rect x="627" y="1162.5" width="16" height="25" fill="black" /></mask><g mask="url(#e750e)"><path d="M 605,1175 L 665,1175" fill="none" stroke="#a0a0a0" stroke-width="1.5" stroke-linecap="round" stroke-linejoin="round"/></g><g transform="translate(630, 1165.5)" width="10" height="19"><text text-decoration="none" x="0" fill="rgb(75, 75, 75)" font-weight="bold" font-size="9pt" font-family="Arial"  y="17">N</text><text text-decoration="none" x="10" fill="#4b4b4b" font-size="10pt" font-family="noto_regular"  y="17"></text></g><g transform="translate(630, 1165.5)" width="10" height="19"><text text-decoration="none" x="0" fill="rgb(75, 75, 75)" font-weight="bold" font-size="9pt" font-family="Arial"  y="17">N</text><text text-decoration="none" x="10" fill="#4b4b4b" font-size="10pt" font-family="noto_regular"  y="17"></text></g><g transform="translate(630, 1165.5)" width="10" height="19"><text text-decoration="none" x="0" fill="rgb(75, 75, 75)" font-weight="bold" font-size="9pt" font-family="Arial"  y="17">N</text><text text-decoration="none" x="10" fill="#4b4b4b" font-size="10pt" font-family="noto_regular"  y="17"></text></g></g></svg>